<svg xmlns="http://www.w3.org/2000/svg" viewBox="0 0 100 100" width="100" height="100">
  <defs>
    <linearGradient id="basketGrad" x1="0%" y1="0%" x2="100%" y2="100%">
      <stop offset="0%" stop-color="#10B981" />
      <stop offset="100%" stop-color="#047857" />
    </linearGradient>
    <linearGradient id="leafGrad" x1="0%" y1="0%" x2="100%" y2="100%">
      <stop offset="0%" stop-color="#34D399" />
      <stop offset="100%" stop-color="#059669" />
    </linearGradient>
  </defs>
  <!-- Leaves growing out -->
  <path d="M50 35 C40 20, 25 25, 30 45 C35 35, 45 35, 50 35 Z" fill="url(#leafGrad)" />
  <path d="M50 35 C60 20, 75 25, 70 45 C65 35, 55 35, 50 35 Z" fill="url(#leafGrad)" />
  <path d="M50 35 C50 15, 62 10, 58 30 C54 22, 50 20, 50 35 Z" fill="#34D399" />
  
  <!-- Basket Handle -->
  <path d="M25 50 C25 25, 75 25, 75 50" fill="none" stroke="url(#basketGrad)" stroke-width="6" stroke-linecap="round" />
  
  <!-- Basket Body -->
  <path d="M20 48 L80 48 C83 48, 85 50, 84 53 L74 85 C73 88, 70 90, 66 90 L34 90 C30 90, 27 88, 26 85 L16 53 C15 50, 17 48, 20 48 Z" fill="url(#basketGrad)" />
  
  <!-- Basket Grid lines for texture -->
  <path d="M30 54 L36 84 M40 54 L44 84 M50 54 L50 84 M60 54 L56 84 M70 54 L64 84" stroke="#ffffff" stroke-width="2.5" stroke-opacity="0.3" stroke-linecap="round" />
  <path d="M22 62 L78 62 M24 74 L76 74" stroke="#ffffff" stroke-width="2.5" stroke-opacity="0.3" stroke-linecap="round" />
</svg>
